<svg id="visual" viewBox="0 0 900 450" width="900" height="450" xmlns="http://www.w3.org/2000/svg" xmlns:xlink="http://www.w3.org/1999/xlink" version="1.1"><rect x="0" y="0" width="900" height="450" fill="#001220"></rect><defs><linearGradient id="grad1_0" x1="50%" y1="0%" x2="100%" y2="100%"><stop offset="10%" stop-color="#001220" stop-opacity="1"></stop><stop offset="90%" stop-color="#001220" stop-opacity="1"></stop></linearGradient></defs><defs><linearGradient id="grad2_0" x1="0%" y1="0%" x2="50%" y2="100%"><stop offset="10%" stop-color="#001220" stop-opacity="1"></stop><stop offset="90%" stop-color="#001220" stop-opacity="1"></stop></linearGradient></defs><g transform="translate(900, 0)"><path d="M0 225C-45.6 222.7 -91.2 220.4 -112.5 194.9C-133.8 169.3 -130.8 120.4 -145.5 84C-160.2 47.6 -192.6 23.8 -225 0L0 0Z" fill="#FBAE3C"></path></g><g transform="translate(0, 450)"><path d="M0 -225C25.4 -195.4 50.8 -165.7 87 -150.7C123.2 -135.6 170.1 -135.2 194.9 -112.5C219.6 -89.8 222.3 -44.9 225 0L0 0Z" fill="#FBAE3C"></path></g></svg>